<svg width="75" height="69" viewBox="0 0 75 69" fill="none" xmlns="http://www.w3.org/2000/svg">
<path d="M28.587 20.6578C28.587 11.5836 36.184 3.74485 46.413 2.63449V48.3422C46.413 57.4164 38.816 65.2551 28.587 66.3655V20.6578ZM54.6739 2.5H72.5V17.8472C72.5 26.9215 64.9029 34.7602 54.6739 35.8706V2.5ZM2.5 66.5V51.1527C2.5 42.0785 10.0971 34.2398 20.3261 33.1294V66.5H2.5ZM20.3261 18.1986C20.3261 22.2935 16.5762 26.0275 11.413 26.0275C6.24989 26.0275 2.5 22.2935 2.5 18.1986C2.5 14.1037 6.24989 10.3697 11.413 10.3697C16.5762 10.3697 20.3261 14.1037 20.3261 18.1986Z" stroke="url(#paint0_linear_2140_380)" stroke-width="5"/>
<defs>
<linearGradient id="paint0_linear_2140_380" x1="37.5" y1="0" x2="37.5" y2="69" gradientUnits="userSpaceOnUse">
<stop stop-color="white"/>
<stop offset="1" stop-color="#999999"/>
</linearGradient>
</defs>
</svg>
